<svg width="20" height="20" viewBox="0 0 20 20" fill="none" xmlns="http://www.w3.org/2000/svg">
<path fill-rule="evenodd" clip-rule="evenodd" d="M16.004 6.66701C16.1898 6.85299 16.2941 7.10508 16.2941 7.36793C16.2941 7.63078 16.1898 7.88288 16.004 8.06885L10.7141 13.3588C10.5281 13.5446 10.276 13.6489 10.0131 13.6489C9.75029 13.6489 9.49819 13.5446 9.31221 13.3588L4.02223 8.06885C3.92478 7.97805 3.84662 7.86855 3.79241 7.74688C3.7382 7.62521 3.70905 7.49387 3.7067 7.36069C3.70435 7.22751 3.72885 7.09522 3.77873 6.97172C3.82862 6.84821 3.90287 6.73602 3.99706 6.64183C4.09124 6.54765 4.20343 6.47339 4.32694 6.42351C4.45044 6.37362 4.58273 6.34912 4.71591 6.35147C4.84909 6.35382 4.98043 6.38297 5.1021 6.43718C5.22377 6.4914 5.33327 6.56956 5.42408 6.66701L10.0131 11.2561L14.6022 6.66701C14.7882 6.48126 15.0403 6.37693 15.3031 6.37693C15.566 6.37693 15.8181 6.48126 16.004 6.66701Z" fill="#81818D" style="fill:#81818D;fill:color(display-p3 0.5059 0.5059 0.5529);fill-opacity:1;"/>
</svg>
