<svg width="17" height="17" viewBox="0 0 17 17" fill="none" xmlns="http://www.w3.org/2000/svg">
<path d="M0.833374 8.34849C0.833374 6.35534 1.62515 4.44383 3.03452 3.03446C4.44389 1.62509 6.3554 0.833313 8.34855 0.833313C10.3417 0.833313 12.2532 1.62509 13.6626 3.03446C15.072 4.44383 15.8637 6.35534 15.8637 8.34849V13.13C15.8637 13.9266 15.8637 14.3231 15.7454 14.6415C15.6512 14.8939 15.504 15.123 15.3135 15.3135C15.1231 15.5039 14.8939 15.6512 14.6416 15.7453C14.3231 15.8637 13.9258 15.8637 13.1301 15.8637H8.34855C6.3554 15.8637 4.44389 15.0719 3.03452 13.6625C1.62515 12.2532 0.833374 10.3416 0.833374 8.34849Z" stroke="#070A1C" style="stroke:#070A1C;stroke:color(display-p3 0.0275 0.0392 0.1098);stroke-opacity:1;" stroke-width="1.66667"/>
<path d="M5.53027 7.40906H11.1667M8.34846 11.1666H11.1667" stroke="#070A1C" style="stroke:#070A1C;stroke:color(display-p3 0.0275 0.0392 0.1098);stroke-opacity:1;" stroke-width="1.66667" stroke-linecap="round" stroke-linejoin="round"/>
</svg>
