<svg width="21" height="20" viewBox="0 0 21 20" fill="none" xmlns="http://www.w3.org/2000/svg">
<g clip-path="url(#clip0_55_701)">
<g clip-path="url(#clip1_55_701)">
<path d="M2.54736 10.0001C2.54736 10.0001 5.04736 4.16675 10.8807 4.16675C16.714 4.16675 19.214 10.0001 19.214 10.0001C19.214 10.0001 16.714 15.8334 10.8807 15.8334C5.04736 15.8334 2.54736 10.0001 2.54736 10.0001Z" stroke="#81818D" style="stroke:#81818D;stroke:color(display-p3 0.5059 0.5059 0.5529);stroke-opacity:1;" stroke-width="2" stroke-linecap="round" stroke-linejoin="round"/>
<path d="M10.8807 12.5001C12.2614 12.5001 13.3807 11.3808 13.3807 10.0001C13.3807 8.61937 12.2614 7.50008 10.8807 7.50008C9.49998 7.50008 8.3807 8.61937 8.3807 10.0001C8.3807 11.3808 9.49998 12.5001 10.8807 12.5001Z" stroke="#81818D" style="stroke:#81818D;stroke:color(display-p3 0.5059 0.5059 0.5529);stroke-opacity:1;" stroke-width="2" stroke-linecap="round" stroke-linejoin="round"/>
</g>
</g>
<defs>
<clipPath id="clip0_55_701">
<rect width="20" height="20" fill="white" style="fill:white;fill-opacity:1;" transform="translate(0.880859)"/>
</clipPath>
<clipPath id="clip1_55_701">
<rect width="20" height="20" fill="white" style="fill:white;fill-opacity:1;" transform="translate(0.880859)"/>
</clipPath>
</defs>
</svg>
