<svg width="19" height="19" viewBox="0 0 19 19" fill="none" xmlns="http://www.w3.org/2000/svg">
<path d="M0.833374 4.16665C0.833374 3.28259 1.18456 2.43474 1.80968 1.80962C2.43481 1.1845 3.28265 0.833313 4.16671 0.833313H14.1667C15.0508 0.833313 15.8986 1.1845 16.5237 1.80962C17.1489 2.43474 17.5 3.28259 17.5 4.16665V14.1666C17.5 15.0507 17.1489 15.8985 16.5237 16.5237C15.8986 17.1488 15.0508 17.5 14.1667 17.5H4.16671C3.28265 17.5 2.43481 17.1488 1.80968 16.5237C1.18456 15.8985 0.833374 15.0507 0.833374 14.1666V4.16665Z" stroke="#070A1C" style="stroke:#070A1C;stroke:color(display-p3 0.0275 0.0392 0.1098);stroke-opacity:1;" stroke-width="1.66667" stroke-linecap="round" stroke-linejoin="round"/>
<path d="M6.25008 8.33329C7.40067 8.33329 8.33341 7.40055 8.33341 6.24996C8.33341 5.09937 7.40067 4.16663 6.25008 4.16663C5.09949 4.16663 4.16675 5.09937 4.16675 6.24996C4.16675 7.40055 5.09949 8.33329 6.25008 8.33329Z" stroke="#070A1C" style="stroke:#070A1C;stroke:color(display-p3 0.0275 0.0392 0.1098);stroke-opacity:1;" stroke-width="1.66667" stroke-linecap="round" stroke-linejoin="round"/>
<path d="M11.2717 9.68415L4.16675 17.5H14.2776C15.1322 17.5 15.9519 17.1605 16.5562 16.5561C17.1606 15.9518 17.5001 15.1321 17.5001 14.2775V14.1666C17.5001 13.7783 17.3542 13.6291 17.0917 13.3416L13.7334 9.67915C13.5769 9.50841 13.3865 9.37217 13.1744 9.27913C12.9623 9.18608 12.7331 9.13827 12.5015 9.13874C12.2699 9.13921 12.0409 9.18795 11.8291 9.28186C11.6174 9.37577 11.4276 9.51278 11.2717 9.68415Z" stroke="#070A1C" style="stroke:#070A1C;stroke:color(display-p3 0.0275 0.0392 0.1098);stroke-opacity:1;" stroke-width="1.66667" stroke-linecap="round" stroke-linejoin="round"/>
</svg>
