<svg width="146" height="18" viewBox="0 0 146 18" fill="none" xmlns="http://www.w3.org/2000/svg">
<g clip-path="url(#clip0_55_2238)">
<path d="M28.4533 1.382H32.7528L34.772 11.7977L36.5475 4.23032C37.0523 2.0056 38.149 1.04492 39.8374 1.04492C41.5259 1.04492 42.6051 1.98874 43.1273 4.23032L44.9029 11.7977L46.9221 1.382H51.2216L48.4191 14.1236C48.0187 15.9438 46.7654 16.9719 45.0595 16.9719C43.3536 16.9719 42.1526 15.9775 41.7522 14.309L39.82 6.08425L37.8878 14.309C37.4875 15.9775 36.1123 16.9719 34.5805 16.9719C33.0487 16.9719 31.6213 15.9607 31.221 14.1236L28.4185 1.382H28.4533Z" fill="#543C52" style="fill:#543C52;fill:color(display-p3 0.3294 0.2353 0.3216);fill-opacity:1;"/>
<path d="M52.144 8.99997C52.144 4.46626 55.6777 1.06177 60.4298 1.06177C65.1819 1.06177 68.7155 4.46626 68.7155 8.99997C68.7155 13.5337 65.1819 16.9382 60.4298 16.9382C55.6777 16.9382 52.144 13.5337 52.144 8.99997ZM64.3115 8.99997C64.3115 6.74154 62.6404 5.00559 60.4472 5.00559C58.2539 5.00559 56.5828 6.74154 56.5828 8.99997C56.5828 11.2584 58.2539 12.9944 60.4472 12.9944C62.6404 12.9944 64.3115 11.2584 64.3115 8.99997Z" fill="#543C52" style="fill:#543C52;fill:color(display-p3 0.3294 0.2353 0.3216);fill-opacity:1;"/>
<path d="M71.292 16.6011V1.38196H77.8892C81.6143 1.38196 84.4517 3.06735 84.4517 6.43814C84.4517 9.80892 83.2854 10.0954 81.4402 10.6516C82.2236 11.1404 82.7458 12.0336 83.442 13.3988L85.0435 16.6011H80.361L78.8988 13.7359C78.3592 12.6909 77.75 12.3202 76.3574 12.3202H75.5741V16.6011H71.292ZM75.5915 5.2078V8.61229C75.5741 8.61229 77.8718 8.61229 77.8718 8.61229C79.1251 8.61229 80.0129 7.93814 80.0129 6.85949C80.0129 5.78083 79.1251 5.2078 77.924 5.2078H75.5915Z" fill="#543C52" style="fill:#543C52;fill:color(display-p3 0.3294 0.2353 0.3216);fill-opacity:1;"/>
<path d="M92.1452 12.7584H99.0906V16.5842H91.5708C88.9249 16.5842 87.8457 15.2359 87.8457 13.0954V1.38196H92.1452V12.7584Z" fill="#543C52" style="fill:#543C52;fill:color(display-p3 0.3294 0.2353 0.3216);fill-opacity:1;"/>
<path d="M107.411 16.6011H101.197V1.38196H107.411C112.564 1.38196 115.975 4.43252 115.975 9.0505C115.975 13.6685 112.442 16.6011 107.411 16.6011ZM107.411 5.2078H105.496V12.8763H107.411C109.918 12.8763 111.554 11.3426 111.554 9.0505C111.554 6.75836 109.918 5.22465 107.411 5.22465V5.2078Z" fill="#543C52" style="fill:#543C52;fill:color(display-p3 0.3294 0.2353 0.3216);fill-opacity:1;"/>
<path d="M129.588 1.38196V16.6011H125.288V1.38196H129.588Z" fill="#543C52" style="fill:#543C52;fill:color(display-p3 0.3294 0.2353 0.3216);fill-opacity:1;"/>
<path d="M145.01 5.2078H140.571V16.5842H136.272V5.2078H131.833V1.38196H145.027V5.2078H145.01Z" fill="#543C52" style="fill:#543C52;fill:color(display-p3 0.3294 0.2353 0.3216);fill-opacity:1;"/>
<path d="M1.75098 4.66858H8.57451V8.37644H3.70056C2.62132 8.37644 1.75098 7.53375 1.75098 6.4888V4.66858Z" fill="#543C52" style="fill:#543C52;fill:color(display-p3 0.3294 0.2353 0.3216);fill-opacity:1;"/>
<path d="M6.62513 15.809H1.75118L1.75118 12.1011H8.57471V13.9213C8.57471 14.9663 7.70436 15.809 6.62513 15.809Z" fill="#543C52" style="fill:#543C52;fill:color(display-p3 0.3294 0.2353 0.3216);fill-opacity:1;"/>
<path d="M8.67915 8.17419C8.64433 8.17419 8.60952 8.17419 8.57471 8.17419V11.8989C8.60952 11.8989 8.64433 11.8989 8.67915 11.8989C11.795 11.8989 14.319 14.3596 14.319 17.3596C14.319 20.3596 14.319 17.427 14.319 17.4607H18.1659C18.1659 17.427 18.1659 17.3933 18.1659 17.3596C18.1659 12.3034 13.9186 8.17419 8.67915 8.17419Z" fill="#543C52" style="fill:#543C52;fill:color(display-p3 0.3294 0.2353 0.3216);fill-opacity:1;"/>
<path d="M10.6984 0.539307C11.882 0.539307 12.822 1.46627 12.822 2.59549C12.822 3.74155 11.8646 4.65167 10.6984 4.65167H8.57471V2.59549C8.57471 1.44942 9.53209 0.539307 10.6984 0.539307Z" fill="#543C52" style="fill:#543C52;fill:color(display-p3 0.3294 0.2353 0.3216);fill-opacity:1;"/>
<path d="M14.4235 6.15168H14.5105C15.5723 6.15168 16.843 6.01684 18.1311 5.79774C19.4019 5.57864 20.6552 5.27527 21.6473 4.93819C21.6822 4.93819 21.6996 4.92134 21.7344 4.90448C21.6125 4.04493 21.1774 3.2528 20.4985 2.66291C19.8196 2.08988 18.9493 1.76965 18.0441 1.76965C16.2164 1.76965 14.702 3.05055 14.3886 4.71909C14.3538 4.92134 14.3364 5.14044 14.3364 5.35954C14.3364 5.57864 14.3364 5.46066 14.3364 5.49437C14.3364 5.71347 14.3712 5.93257 14.4235 6.13482V6.15168Z" fill="#543C52" style="fill:#543C52;fill:color(display-p3 0.3294 0.2353 0.3216);fill-opacity:1;"/>
<path d="M24.4498 4.28087C24.3628 3.80896 23.2487 3.55615 21.6125 3.55615C21.7169 3.7584 21.804 3.96065 21.891 4.17975C21.891 4.21346 21.9084 4.24716 21.9258 4.28087C22.6917 4.28087 23.1965 4.36514 23.475 4.44941C23.2313 4.61795 22.7961 4.85391 22.0651 5.12357L21.8214 5.20784L21.7343 5.24155C20.7595 5.57862 19.5759 5.86514 18.34 6.08424C18.2877 6.08424 18.2181 6.1011 18.1659 6.11795C18.0963 6.11795 18.0266 6.1348 17.957 6.15166C16.7559 6.35391 15.5723 6.45503 14.5627 6.47188H14.493H14.1623C13.3964 6.47188 12.8916 6.38761 12.6131 6.30334C12.8568 6.1348 13.2919 5.89885 14.023 5.62919C14.023 5.59548 14.023 5.56177 14.023 5.52806C14.023 5.4775 14.023 5.42694 14.023 5.37638C14.023 5.20784 14.023 5.02244 14.0579 4.8539C12.5086 5.39323 11.5513 5.98312 11.6383 6.47188C11.7253 6.9775 13.0134 7.23031 14.8412 7.17975C14.9108 7.17975 14.963 7.17975 15.0326 7.17975C15.903 7.14604 16.8778 7.04492 17.87 6.89323C17.9396 6.89323 18.0092 6.87638 18.0789 6.85952C18.1485 6.85952 18.2181 6.84267 18.2877 6.82582C18.3574 6.82582 18.427 6.80896 18.4966 6.79211C18.5663 6.79211 18.6359 6.7584 18.7055 6.7584C19.6977 6.57301 20.6551 6.33705 21.4732 6.08424C21.5254 6.06739 21.5951 6.05053 21.6473 6.03368C23.388 5.4775 24.502 4.8202 24.415 4.29773L24.4498 4.28087Z" fill="#543C52" style="fill:#543C52;fill:color(display-p3 0.3294 0.2353 0.3216);fill-opacity:1;"/>
<path d="M18.3574 7.11231C17.2086 7.31456 16.0597 7.43253 15.0327 7.46624C15.729 8.39321 16.843 8.94939 18.0267 8.94939C19.7152 8.94939 21.1426 7.85388 21.5951 6.35388C20.6203 6.65725 19.5063 6.91006 18.3574 7.11231Z" fill="#543C52" style="fill:#543C52;fill:color(display-p3 0.3294 0.2353 0.3216);fill-opacity:1;"/>
</g>
<defs>
<clipPath id="clip0_55_2238">
<rect width="145" height="18" fill="white" style="fill:white;fill-opacity:1;" transform="translate(0.880859)"/>
</clipPath>
</defs>
</svg>
