<svg
    width="15"
    height="15"
    viewBox="0 0 15 15"
    fill="none"
    xmlns="http://www.w3.org/2000/svg"
>
    <path
        d="M12.3677 8.31008H8.31117V12.3666C8.31117 12.5817 8.2257 12.7881 8.07355 12.9402C7.9214 13.0924 7.71505 13.1779 7.49988 13.1779C7.28471 13.1779 7.07835 13.0924 6.9262 12.9402C6.77406 12.7881 6.68858 12.5817 6.68858 12.3666V8.31008H2.6321C2.41693 8.31008 2.21057 8.2246 2.05842 8.07245C1.90628 7.92031 1.8208 7.71395 1.8208 7.49878C1.8208 7.28361 1.90628 7.07725 2.05842 6.92511C2.21057 6.77296 2.41693 6.68748 2.6321 6.68748H6.68858V2.631C6.68858 2.41583 6.77406 2.20947 6.9262 2.05733C7.07835 1.90518 7.28471 1.8197 7.49988 1.8197C7.71505 1.8197 7.9214 1.90518 8.07355 2.05733C8.2257 2.20947 8.31117 2.41583 8.31117 2.631V6.68748H12.3677C12.5828 6.68748 12.7892 6.77296 12.9413 6.92511C13.0935 7.07725 13.179 7.28361 13.179 7.49878C13.179 7.71395 13.0935 7.92031 12.9413 8.07245C12.7892 8.2246 12.5828 8.31008 12.3677 8.31008Z"
        fill="currentColor"
    />
</svg>
