<svg width="17" height="18" viewBox="0 0 17 18" fill="none" xmlns="http://www.w3.org/2000/svg">
<circle cx="2.34996" cy="2.34996" r="2.34996" transform="matrix(-1 0 0 1 10.6445 6.38324)" stroke="#070A1C" style="stroke:#070A1C;stroke:color(display-p3 0.0275 0.0392 0.1098);stroke-opacity:1;" stroke-width="1.8"/>
<path d="M8.2948 0.900024L8.29482 2.44379e-05H8.2948V0.900024ZM11.8192 3.20081L11.3691 3.98015L11.3692 3.98023L11.8192 3.20081ZM13.7782 7.94983L12.8782 7.9498V7.94983H13.7782ZM11.8192 14.2653L11.3692 13.4858L11.3691 13.4859L11.8192 14.2653ZM8.2948 16.566V17.466H8.29482L8.2948 16.566ZM4.76941 14.2653L5.21941 13.4858L5.21934 13.4858L4.76941 14.2653ZM2.0282 8.73303H2.9282L2.9282 8.73296L2.0282 8.73303ZM4.76941 3.20081L5.21936 3.98026L5.21941 3.98023L4.76941 3.20081ZM6.48191 1.11115L6.27429 0.235424L6.48191 1.11115ZM6.48188 16.3549L6.68952 15.4792L6.48188 16.3549ZM10.7375 15.6522L11.6029 15.8995L10.7375 15.6522ZM10.1067 16.3549L9.89904 15.4792L10.1067 16.3549ZM13.4107 13.9896L13.2494 14.8751L13.4107 13.9896ZM14.6965 6.08862L14.1483 5.37484L14.6965 6.08862ZM1.2782 10.4511L0.66564 9.79172L1.2782 10.4511ZM13.4108 3.47568L13.2489 2.59036L13.4108 3.47568ZM2.2689 3.72944L1.57661 3.15434L2.2689 3.72944ZM3.17726 3.47601L3.01532 4.36132L3.17726 3.47601ZM15.0932 10.0577L15.4893 9.24958L15.0932 10.0577ZM10.7375 1.81391L11.6029 1.56663L10.7375 1.81391ZM8.2948 0.900024L8.29478 1.80002C8.84784 1.80004 9.38477 1.86493 9.89901 1.98686L10.1067 1.11114L10.3143 0.235425C9.66543 0.0815697 8.98918 4.15444e-05 8.29482 2.44379e-05L8.2948 0.900024ZM10.7375 1.81391L9.87217 2.06118C10.0949 2.84071 10.6094 3.54137 11.3691 3.98015L11.8192 3.20081L12.2694 2.42146C11.9312 2.22617 11.7029 1.91661 11.6029 1.56663L10.7375 1.81391ZM11.8192 3.20081L11.3692 3.98023C12.0631 4.38086 12.844 4.49423 13.5726 4.36101L13.4108 3.47568L13.2489 2.59036C12.9221 2.65011 12.5775 2.59937 12.2692 2.42138L11.8192 3.20081ZM14.3188 3.7288L13.6272 4.30482C13.8882 4.61807 14.1219 4.95403 14.3247 5.30932L15.1063 4.86319L15.888 4.41707C15.6322 3.96889 15.3379 3.54612 15.0103 3.15279L14.3188 3.7288ZM14.6965 6.08862L14.1483 5.37484C13.3779 5.96651 12.8782 6.8992 12.8782 7.9498L13.7782 7.94983L14.6782 7.94985C14.6782 7.48272 14.8984 7.06837 15.2447 6.80239L14.6965 6.08862ZM13.7782 7.94983H12.8782C12.8782 9.23298 13.6218 10.3387 14.697 10.8658L15.0932 10.0577L15.4893 9.24958C15.0067 9.01301 14.6782 8.51963 14.6782 7.94983H13.7782ZM15.7381 11.1755L14.883 10.8948C14.6086 11.7308 14.1786 12.4972 13.6267 13.1606L14.3186 13.7362L15.0104 14.3118C15.7042 13.4779 16.2466 12.5122 16.5932 11.4562L15.7381 11.1755ZM13.4107 13.9896L13.5721 13.1042C12.8433 12.9714 12.0626 13.0855 11.3692 13.4858L11.8192 14.2653L12.2692 15.0447C12.5778 14.8665 12.9228 14.8156 13.2494 14.8751L13.4107 13.9896ZM11.8192 14.2653L11.3691 13.4859C10.6094 13.9247 10.0949 14.6254 9.87218 15.4049L10.7375 15.6522L11.6029 15.8995C11.7029 15.5494 11.9313 15.2399 12.2693 15.0446L11.8192 14.2653ZM10.1067 16.3549L9.89904 15.4792C9.3848 15.6011 8.84789 15.666 8.29478 15.666L8.2948 16.566L8.29482 17.466C8.98922 17.466 9.66545 17.3845 10.3143 17.2306L10.1067 16.3549ZM8.2948 16.566V15.666C7.74132 15.666 7.204 15.6012 6.68952 15.4792L6.48188 16.3549L6.27424 17.2306C6.92353 17.3846 7.60019 17.466 8.2948 17.466V16.566ZM5.85113 15.6522L6.71653 15.4051C6.49386 14.6254 5.97944 13.9246 5.21941 13.4858L4.76941 14.2653L4.31941 15.0447C4.65753 15.2399 4.88576 15.5494 4.98573 15.8994L5.85113 15.6522ZM4.76941 14.2653L5.21934 13.4858C4.52601 13.0856 3.7452 12.971 3.0159 13.1039L3.1773 13.9893L3.33869 14.8747C3.6651 14.8152 4.01031 14.8663 4.31948 15.0447L4.76941 14.2653ZM2.26891 13.7357L2.96111 13.1605C2.46286 12.5609 2.06446 11.8767 1.79008 11.1327L0.945676 11.4441L0.101277 11.7556C0.447488 12.6943 0.949745 13.5564 1.57672 14.3109L2.26891 13.7357ZM1.2782 10.4511L1.89076 11.1105C2.52685 10.5195 2.9282 9.67347 2.9282 8.73303H2.0282H1.1282C1.1282 9.15091 0.951712 9.52596 0.66564 9.79172L1.2782 10.4511ZM2.0282 8.73303L2.9282 8.73296C2.92813 7.7934 2.52783 6.94689 1.89211 6.35539L1.27904 7.01428L0.665967 7.67318C0.951656 7.939 1.12817 8.3147 1.1282 8.7331L2.0282 8.73303ZM0.946698 6.02089L1.79113 6.33224C2.0655 5.58808 2.46341 4.90376 2.96119 4.30453L2.2689 3.72944L1.57661 3.15434C0.949716 3.90899 0.448202 4.7713 0.102267 5.70955L0.946698 6.02089ZM3.17726 3.47601L3.01532 4.36132C3.74448 4.4947 4.52548 4.38081 5.21936 3.98026L4.76941 3.20081L4.31946 2.42135C4.0106 2.59965 3.66574 2.65043 3.33921 2.5907L3.17726 3.47601ZM4.76941 3.20081L5.21941 3.98023C5.97943 3.54143 6.49387 2.84068 6.71654 2.06102L5.85114 1.81387L4.98574 1.56671C4.88578 1.91671 4.65757 2.22614 4.31941 2.42138L4.76941 3.20081ZM6.48191 1.11115L6.68954 1.98687C7.20403 1.86489 7.74137 1.80002 8.2948 1.80002V0.900024V2.44379e-05C7.60022 2.44379e-05 6.92355 0.0814896 6.27429 0.235424L6.48191 1.11115ZM5.85114 1.81387L6.71654 2.06102C6.72529 2.03038 6.73575 2.00423 6.74613 1.98366C6.75658 1.96295 6.76492 1.95187 6.76803 1.94815C6.77094 1.94468 6.76647 1.95094 6.7521 1.96039C6.7367 1.9705 6.71504 1.98082 6.68954 1.98687L6.48191 1.11115L6.27429 0.235424C5.49412 0.420395 5.1216 1.09099 4.98574 1.56671L5.85114 1.81387ZM1.27904 7.01428L1.89211 6.35539C1.86559 6.33072 1.84385 6.30547 1.82765 6.28242C1.81131 6.25918 1.80394 6.24298 1.8014 6.23625C1.79899 6.22987 1.80282 6.23723 1.80355 6.25694C1.80434 6.27846 1.80098 6.30553 1.79113 6.33224L0.946698 6.02089L0.102267 5.70955C-0.211689 6.56106 0.268812 7.30365 0.665967 7.67318L1.27904 7.01428ZM3.1773 13.9893L3.0159 13.1039C2.98462 13.1096 2.9566 13.1118 2.9336 13.1116C2.91046 13.1114 2.89684 13.1088 2.89211 13.1077C2.88769 13.1066 2.8952 13.1078 2.90992 13.1165C2.9257 13.1257 2.94444 13.1404 2.96111 13.1605L2.26891 13.7357L1.57672 14.3109C2.08803 14.9262 2.85235 14.9634 3.33869 14.8747L3.1773 13.9893ZM6.48188 16.3549L6.68952 15.4792C6.71502 15.4852 6.73668 15.4956 6.75208 15.5057C6.76645 15.5151 6.77092 15.5214 6.76801 15.5179C6.7649 15.5142 6.75656 15.5031 6.74612 15.4824C6.73574 15.4618 6.72528 15.4357 6.71653 15.4051L5.85113 15.6522L4.98573 15.8994C5.1216 16.3751 5.49411 17.0457 6.27424 17.2306L6.48188 16.3549ZM10.7375 15.6522L9.87218 15.4049C9.86342 15.4356 9.85295 15.4617 9.84256 15.4823C9.8321 15.503 9.82375 15.5141 9.82062 15.5179C9.8177 15.5214 9.82216 15.5151 9.83652 15.5057C9.8519 15.4956 9.87355 15.4852 9.89904 15.4792L10.1067 16.3549L10.3143 17.2306C11.0945 17.0457 11.467 16.3751 11.6029 15.8995L10.7375 15.6522ZM14.3186 13.7362L13.6267 13.1606C13.6433 13.1406 13.662 13.1259 13.6777 13.1167C13.6924 13.1081 13.6999 13.1069 13.6955 13.108C13.6908 13.1091 13.6772 13.1117 13.6541 13.1119C13.6312 13.1121 13.6033 13.1099 13.5721 13.1042L13.4107 13.9896L13.2494 14.8751C13.7359 14.9637 14.4993 14.9261 15.0104 14.3118L14.3186 13.7362ZM15.1063 4.86319L14.3247 5.30932C14.3079 5.2799 14.2988 5.24438 14.298 5.21399C14.2974 5.18778 14.303 5.18105 14.2971 5.19644C14.2909 5.21212 14.2765 5.24045 14.2486 5.27607C14.2209 5.3113 14.1862 5.3457 14.1483 5.37484L14.6965 6.08862L15.2447 6.80239C15.5448 6.57187 15.8207 6.24403 15.9743 5.84969C16.1331 5.44206 16.1726 4.91582 15.888 4.41707L15.1063 4.86319ZM0.945676 11.4441L1.79008 11.1327C1.79994 11.1595 1.80331 11.1866 1.80252 11.2082C1.80179 11.2279 1.79794 11.2354 1.80032 11.2291C1.80283 11.2224 1.81016 11.2063 1.82645 11.1832C1.84261 11.1602 1.86431 11.135 1.89076 11.1105L1.2782 10.4511L0.66564 9.79172C0.267916 10.1612 -0.212837 10.9039 0.101277 11.7556L0.945676 11.4441ZM13.4108 3.47568L13.5726 4.36101C13.6038 4.35532 13.6316 4.35313 13.6545 4.35332C13.6775 4.35351 13.6911 4.35606 13.6958 4.3572C13.7002 4.35827 13.6928 4.35708 13.6781 4.34852C13.6625 4.33935 13.6438 4.32473 13.6272 4.30482L14.3188 3.7288L15.0103 3.15279C14.499 2.53897 13.7358 2.50133 13.2489 2.59036L13.4108 3.47568ZM2.2689 3.72944L2.96119 4.30453C2.94451 4.32462 2.92573 4.33938 2.9099 4.34865C2.89512 4.35731 2.88755 4.35853 2.89192 4.35748C2.89659 4.35634 2.91014 4.35379 2.93322 4.3536C2.95615 4.35341 2.9841 4.35561 3.01532 4.36132L3.17726 3.47601L3.33921 2.5907C2.85263 2.50169 2.08799 2.53875 1.57661 3.15434L2.2689 3.72944ZM15.0932 10.0577L14.697 10.8658C14.7402 10.887 14.7811 10.9139 14.8153 10.943C14.8498 10.9723 14.8695 10.9972 14.8786 11.0113C14.8875 11.0251 14.8806 11.0196 14.876 10.9937C14.8707 10.9637 14.8725 10.927 14.883 10.8948L15.7381 11.1755L16.5932 11.4562C16.7722 10.9112 16.6285 10.4041 16.392 10.0368C16.1632 9.68145 15.8281 9.41567 15.4893 9.24958L15.0932 10.0577ZM10.1067 1.11114L9.89901 1.98686C9.87352 1.98082 9.85188 1.9705 9.83649 1.9604C9.82213 1.95096 9.81768 1.94472 9.8206 1.9482C9.82373 1.95194 9.83208 1.96304 9.84255 1.98376C9.85294 2.00435 9.86341 2.03052 9.87217 2.06118L10.7375 1.81391L11.6029 1.56663C11.467 1.09097 11.0944 0.420407 10.3143 0.235425L10.1067 1.11114Z" fill="#070A1C" style="fill:#070A1C;fill:color(display-p3 0.0275 0.0392 0.1098);fill-opacity:1;"/>
</svg>
