<svg width="21" height="20" viewBox="0 0 21 20" fill="none" xmlns="http://www.w3.org/2000/svg">
<g clip-path="url(#clip0_404_1066)">
<path d="M9.11403 8.23317C8.86841 8.46204 8.6714 8.73805 8.53476 9.04471C8.39812 9.35137 8.32465 9.68242 8.31872 10.0181C8.3128 10.3538 8.37455 10.6872 8.50029 10.9985C8.62602 11.3098 8.81317 11.5926 9.05057 11.83C9.28796 12.0674 9.57074 12.2545 9.88204 12.3802C10.1933 12.506 10.5268 12.5677 10.8624 12.5618C11.1981 12.5559 11.5292 12.4824 11.8358 12.3458C12.1425 12.2091 12.4185 12.0121 12.6474 11.7665M9.82236 4.23317C10.1735 4.18943 10.5269 4.16716 10.8807 4.1665C16.714 4.1665 19.214 9.99984 19.214 9.99984C18.8415 10.7974 18.3742 11.5473 17.8224 12.2332M6.38903 5.50817C4.73174 6.63702 3.40559 8.18755 2.54736 9.99984C2.54736 9.99984 5.04736 15.8332 10.8807 15.8332C12.4773 15.8375 14.0397 15.3708 15.3724 14.4915M2.54736 1.6665L19.214 18.3332" stroke="#81818D" style="stroke:#81818D;stroke:color(display-p3 0.5059 0.5059 0.5529);stroke-opacity:1;" stroke-width="2" stroke-linecap="round" stroke-linejoin="round"/>
</g>
<defs>
<clipPath id="clip0_404_1066">
<rect width="20" height="20" fill="white" style="fill:white;fill-opacity:1;" transform="translate(0.880859)"/>
</clipPath>
</defs>
</svg>
